<?xml version="1.0" standalone="no"?>
<!DOCTYPE svg PUBLIC "-//W3C//DTD SVG 1.1//EN" "http://www.w3.org/Graphics/SVG/1.1/DTD/svg11.dtd" >
<svg xmlns="http://www.w3.org/2000/svg" xmlns:xlink="http://www.w3.org/1999/xlink" version="1.1">
<metadata>
Created by FontForge 20170731 at Sat Jul 14 12:42:13 2018
 By Aleksey,,,
Copyright (c) 2018 by Phil Plu:ckthun. All rights reserved.
</metadata>
<defs>
<font id="DankMono-Italic" horiz-adv-x="660" >
  <font-face 
    font-family="Dank Mono"
    font-weight="400"
    font-style="italic"
    font-stretch="normal"
    units-per-em="1200"
    panose-1="0 0 5 9 0 0 0 0 0 0"
    ascent="935"
    descent="-265"
    x-height="570"
    cap-height="780"
    bbox="-216 -218 1855 876"
    underline-thickness="50"
    underline-position="-200"
    slope="-8"
    unicode-range="U+0020-007E"
  />
<missing-glyph 
 />
    <glyph glyph-name=".notdef" 
 />
    <glyph glyph-name=".null" horiz-adv-x="0" 
 />
    <glyph glyph-name="nonmarkingreturn" horiz-adv-x="400" 
 />
    <glyph glyph-name="uni0020" unicode=" " 
 />
    <glyph glyph-name="uni0021" unicode="!" 
d="M261 205h81l79 381l34 194h-105l-34 -194zM211 48q-11 -63 52 -63q62 0 73 63q11 62 -51 62q-30 0 -49.5 -16t-24.5 -46z" />
    <glyph glyph-name="uni0022" unicode="&#x22;" 
d="M242 780l-46 -318l55 -11q4 6 14.5 33.5t23 64t25.5 77t21 72.5l12 82h-105zM443 780l-46 -318l55 -11q4 6 14.5 33.5t23 64t25.5 77t21 72.5l12 82h-105z" />
    <glyph glyph-name="uni0023" unicode="#" 
d="M244 266l67 249h138l-68 -249h-137zM530 515h88l10 72h-77l56 192h-82l-55 -192h-137l55 192h-82l-55 -192h-86l-10 -72h75l-68 -249h-79l-10 -70h70l-56 -196h81l57 196h137l-56 -196h81l56 196h93l10 70h-83z" />
    <glyph glyph-name="uni0024" unicode="$" 
d="M478 210q-16 -64 -56 -100t-100 -49l56 289q30 -6 52.5 -16t35.5 -26.5t16.5 -40t-4.5 -57.5zM228 582q11 53 44.5 87.5t89.5 46.5l-50 -263q-102 42 -84 129zM598 582q18 62 12.5 102.5t-26.5 64.5t-53.5 34.5t-67.5 11.5l9 45h-86l-10 -53q-41 -9 -78.5 -27t-68 -43.5
t-51.5 -57.5t-29 -69q-17 -81 23 -136.5t124 -83.5l-61 -314q-30 4 -61 15.5t-55 31.5l-56 -51q31 -32 69.5 -48t89.5 -18l-12 -62h86l13 65q97 13 163 66.5t87 150.5q11 52 5.5 89.5t-26.5 64t-57.5 43.5t-87.5 28l56 290q20 -2 38.5 -9t29.5 -23.5t13.5 -45.5t-8.5 -74z
" />
    <glyph glyph-name="uni0025" unicode="%" 
d="M667 758l-58 38l-589 -772l57 -39zM212 506q30 0 57.5 11t49 30t36 45.5t18.5 56.5q9 66 -26.5 106.5t-101.5 40.5q-63 0 -107 -38t-52 -99q-4 -33 3 -61t23.5 -48.5t42 -32t57.5 -11.5zM212 563q-37 0 -49.5 19.5t-6.5 66.5q7 52 28 73.5t62 21.5q39 0 52.5 -19t6.5 -66
q-8 -51 -29.5 -73.5t-63.5 -22.5zM442 -13q30 0 57.5 11t49 30t36 45.5t18.5 56.5q9 66 -26.5 106.5t-101.5 40.5q-63 0 -107 -38t-52 -99q-4 -33 3 -61t23.5 -48.5t42 -32t57.5 -11.5zM442 44q-37 0 -49.5 19.5t-6.5 66.5q7 52 28 73.5t62 21.5q39 0 52.5 -19t6.5 -66
q-8 -51 -29.5 -73.5t-63.5 -22.5z" />
    <glyph glyph-name="uni0026" unicode="&#x26;" 
d="M256 63q-60 0 -92 39t-23 101q7 45 31.5 84.5t72.5 74.5q27 -47 65 -102.5t89 -122.5q-36 -36 -72 -55t-71 -19zM542 350q-44 -91 -92 -154q-76 101 -119.5 172t-65.5 120.5t-26.5 81t-2.5 52.5q3 23 14 41t28 30.5t37.5 19t42.5 6.5q19 0 40.5 -8.5t41.5 -24.5t37 -39.5
t26 -54.5l57 46q-11 39 -31 68.5t-46 50t-56.5 30.5t-62.5 10q-87 0 -139 -49t-63 -134q-4 -29 5.5 -73.5t41.5 -111.5q-73 -46 -110 -100t-45 -116q-7 -48 4.5 -89t37.5 -71.5t65 -47.5t88 -17q100 0 194 92l65 -80l75 28q-24 29 -46 56.5t-42 53.5q24 31 47.5 67.5
t46.5 79.5z" />
    <glyph glyph-name="uni0027" unicode="'" 
d="M338 780l-46 -318l55 -11q4 6 14.5 33.5t23 64t25.5 77t21 72.5l12 82h-105z" />
    <glyph glyph-name="uni0028" unicode="(" 
d="M271 287q10 66 29.5 123t50.5 110t75.5 105t104.5 107l-45 56q-72 -58 -125.5 -116t-92 -117.5t-62 -123t-34.5 -132.5q-11 -72 -7 -137t23.5 -125.5t56 -118.5t89.5 -116l55 48q-43 55 -70.5 106.5t-41.5 103.5t-15 107.5t9 119.5z" />
    <glyph glyph-name="uni0029" unicode=")" 
d="M358 287q-9 -64 -27 -119.5t-47.5 -107.5t-72.5 -103.5t-102 -106.5l41 -48q71 58 124 116t91 118.5t61.5 125.5t33.5 137q9 69 4.5 132.5t-24.5 123t-57 117.5t-91 116l-61 -56q43 -55 72 -107t44.5 -105t18 -110t-7.5 -123z" />
    <glyph glyph-name="uni002A" unicode="*" 
d="M290 558l-119 -115l58 -48l108 87l93 -99l66 38l-87 128l167 59l-21 64l-146 -35l25 155l-73 5l-34 -151l-119 48l-47 -60z" />
    <glyph glyph-name="uni002B" unicode="+" 
d="M528 334h-163l23 161h-70l-23 -161h-160l-10 -70h161l-23 -161h70l23 161h162z" />
    <glyph glyph-name="uni002C" unicode="," 
d="M302 110q-30 0 -48.5 -16t-22.5 -46q-3 -24 4 -38q-11 -20 -23 -41.5t-23 -40t-19.5 -32.5t-12.5 -19l47 -27q15 9 39.5 34t48.5 54.5t42.5 59.5t21.5 50q8 62 -54 62z" />
    <glyph glyph-name="uni002D" unicode="-" 
d="M516 260v70h-371v-70h371z" />
    <glyph glyph-name="uni002E" unicode="." 
d="M267 48q0 -63 63 -63q62 0 62 63q0 62 -62 62q-30 0 -46.5 -16t-16.5 -46z" />
    <glyph glyph-name="uni002F" unicode="/" 
d="M647 803l-58 38l-586 -939l57 -39z" />
    <glyph glyph-name="uni0030" unicode="0" 
d="M395 796q-58 0 -111 -30t-95.5 -84.5t-73 -130t-43.5 -166.5q-12 -85 -2 -158t39 -127t74.5 -84.5t105.5 -30.5q59 0 112 30t96 82.5t72.5 124.5t41.5 155q13 92 3 169t-39 132.5t-75 86.5t-105 31zM171 377q11 81 33 146t51 111.5t64.5 72t74.5 25.5q62 0 96 -65
l-318 -476q-8 38 -8.5 85t7.5 101zM515 385q-10 -72 -31 -131.5t-50 -102.5t-65 -67t-77 -24q-54 0 -87 48l312 477q7 -42 6.5 -91.5t-8.5 -108.5z" />
    <glyph glyph-name="uni0031" unicode="1" 
d="M530 70h-170l100 710h-84q-35 -47 -88 -80t-119 -47l-7 -83q65 7 116 29t78 53l-81 -582h-173l-10 -70h434q-5 15 -2 32t5 34z" />
    <glyph glyph-name="uni0032" unicode="2" 
d="M515 621q-9 -61 -59 -128.5t-120 -136.5t-148 -139t-143 -137l-10 -80h511l11 80l-394 -2q65 67 138 135.5t136 136t107.5 133.5t53.5 129q6 41 -6 75.5t-39 59t-67 38t-91 13.5q-76 0 -135.5 -32t-103.5 -101l55 -44q44 57 90 78.5t97 21.5q64 0 94 -26.5t23 -73.5z" />
    <glyph glyph-name="uni0033" unicode="3" 
d="M190 709l48 -53q11 18 27.5 30.5t36 20t39 10.5t36.5 3q71 0 104.5 -34.5t24.5 -96.5q-11 -75 -62.5 -114.5t-136.5 -39.5h-42l-10 -70h46q89 0 131.5 -42t31.5 -120q-10 -70 -55 -106t-121 -36q-31 0 -55 4.5t-43 15t-33.5 28t-28.5 44.5l-63 -36q49 -132 210 -132
q118 0 190.5 54.5t86.5 154.5q10 73 -14.5 127t-73.5 77q57 29 89 74.5t41 106.5q7 49 -5.5 89t-40 68.5t-68 44t-89.5 15.5q-28 0 -58 -5.5t-57.5 -16t-50 -27t-35.5 -38.5z" />
    <glyph glyph-name="uni0034" unicode="4" 
d="M558 299h-109l11 78q2 16 6 33t9 32h-91l-20 -143h-176l319 481h-92l-318 -481l-11 -80h267l-31 -219h85l31 219h109z" />
    <glyph glyph-name="uni0035" unicode="5" 
d="M196 390l-75 -2l87 392h392l-10 -70h-314l-57 -252q18 29 56 46.5t89 17.5q53 0 93.5 -18t66.5 -51t36.5 -79t2.5 -102q-9 -62 -34.5 -114.5t-64 -91t-86.5 -60t-101 -21.5q-114 0 -205 104l68 59q31 -42 68 -62t88 -20q74 0 121.5 51t60.5 145q12 90 -25 137t-122 47
q-42 0 -78.5 -14.5t-56.5 -41.5z" />
    <glyph glyph-name="uni0036" unicode="6" 
d="M298 66q-36 0 -64.5 14t-47 39t-26.5 60t-3 77l11 72q15 20 37.5 37.5t49 30.5t55 20t56.5 7q36 0 64.5 -12.5t47 -35t26 -54t2.5 -68.5q-6 -40 -24.5 -74t-46.5 -59t-63.5 -39.5t-73.5 -14.5zM593 755q-29 19 -71.5 30t-88.5 11q-63 0 -118.5 -23t-99 -64.5t-72.5 -99
t-39 -127.5l-31 -222q-9 -63 2 -114t39.5 -86.5t74 -55t105.5 -19.5q58 0 108 18.5t88.5 52t63.5 81.5t33 106t-3 105t-39.5 80t-73 50.5t-103.5 17.5q-57 0 -107 -16.5t-80 -47.5l7 46q8 53 29.5 97.5t53 76.5t71.5 49.5t85 17.5q29 0 59 -7t50 -19z" />
    <glyph glyph-name="uni0037" unicode="7" 
d="M663 780h-508l-13 -70h417q-66 -78 -137.5 -158t-135 -167t-112 -182t-68.5 -203h94q19 108 67.5 203t112 182t135 167t136.5 158z" />
    <glyph glyph-name="uni0038" unicode="8" 
d="M282 58q-81 0 -113.5 31t-22.5 85q11 60 65.5 111t135.5 83q68 -31 103.5 -78t25.5 -104q-10 -58 -62 -93t-132 -35zM414 732q52 0 80 -33.5t18 -86.5q-10 -51 -52 -97t-107 -76q-56 29 -81.5 70.5t-16.5 90.5q5 28 19.5 52t36 42t48 28t55.5 10zM552 173
q15 81 -22.5 138t-112.5 89q68 27 112 83t56 126q7 41 -2 75.5t-32 59.5t-58.5 38.5t-80.5 13.5q-92 0 -152 -46t-75 -129q-14 -75 14 -133.5t85 -84.5q-87 -33 -142.5 -89.5t-68.5 -129.5q-7 -43 4.5 -79.5t39 -63t69 -41.5t94.5 -15q52 0 98.5 14t82.5 39t60 59.5t31 75.5
z" />
    <glyph glyph-name="uni0039" unicode="9" 
d="M404 714q36 0 64.5 -13.5t46 -38.5t24 -60t-0.5 -77l-14 -73q-16 -20 -39 -39t-50 -33.5t-56.5 -23.5t-57.5 -9q-72 0 -109 48.5t-23 130.5q7 40 27 74t49 59.5t65 40t74 14.5zM84 25q29 -19 71 -30t89 -11q63 0 119 23t101 64t76 98.5t43 127.5l39 222q11 63 1.5 114
t-37 87t-72.5 55.5t-105 19.5q-58 0 -108 -18t-89.5 -52t-66 -81t-37.5 -106q-11 -62 -1.5 -111t37 -83t71.5 -52t103 -18q57 0 107.5 21.5t82.5 52.5l-9 -45q-10 -53 -33 -97.5t-55.5 -76.5t-73.5 -50t-86 -18q-29 0 -59 7t-49 19z" />
    <glyph glyph-name="uni003A" unicode=":" 
d="M299 458q-11 -63 52 -63q62 0 73 63q11 62 -51 62q-30 0 -49.5 -16t-24.5 -46zM221 78q-11 -63 52 -63q62 0 73 63q11 62 -51 62q-30 0 -49.5 -16t-24.5 -46z" />
    <glyph glyph-name="uni003B" unicode=";" 
d="M335 520q-30 0 -47 -16t-18 -46q-3 -63 60 -63q62 0 65 63q2 62 -60 62zM293 140q-30 0 -49.5 -16t-24.5 -46q-4 -24 3 -39q-12 -20 -24.5 -41t-24 -40t-20.5 -32.5t-13 -18.5l46 -27q11 7 31 26t42 44t43 51.5t33 47.5h-1q7 11 10 29q11 62 -51 62z" />
    <glyph glyph-name="uni003C" unicode="&#x3c;" 
d="M113 359l-14 -91l347 -238l48 78l-305 205l363 204l-20 80z" />
    <glyph glyph-name="uni003D" unicode="=" 
d="M526 362l16 70h-387l-16 -70h387zM501 185l16 70h-387l-16 -70h387z" />
    <glyph glyph-name="uni003E" unicode="&#x3e;" 
d="M548 359l-352 238l-43 -80l306 -204l-363 -205l26 -78l414 238z" />
    <glyph glyph-name="uni003F" unicode="?" 
d="M378 800q-78 0 -142.5 -25.5t-95.5 -74.5l44 -66q15 23 38 39.5t49.5 27.5t54 16.5t52.5 5.5q75 0 107 -26t24 -85q-6 -45 -26.5 -73t-48.5 -49.5t-60 -41.5t-61.5 -47.5t-52 -68.5t-32.5 -104h91q8 54 29 88t49 58.5t59.5 43.5t59.5 43t49 57t28 84t-5 88.5t-40.5 62
t-71.5 36t-98 11.5zM186 48q-9 -63 54 -63q62 0 71 63q8 62 -54 62q-30 0 -48.5 -16t-22.5 -46z" />
    <glyph glyph-name="uni0040" unicode="@" 
d="M384 66q-56 0 -78 43t-8 123q14 78 52 119.5t98 41.5q29 0 45 -10t28 -38l-40 -229q-23 -27 -46 -38.5t-51 -11.5zM423 796q-77 0 -135 -34t-101.5 -102.5t-75.5 -171t-56 -239.5q-28 -160 -14.5 -260t63.5 -153q13 -14 25.5 -27t30.5 -24l73 51q-12 7 -20.5 15t-31.5 25
q-51 39 -60 122t14 217q25 143 53 239.5t62 155t75.5 84t93.5 25.5q168 0 125 -246l-20 -110l6 45q-19 30 -41.5 44t-56.5 14q-82 0 -139.5 -59.5t-76.5 -162.5q-10 -57 -4.5 -104.5t24.5 -82t50.5 -53.5t72.5 -19q28 0 54 10.5t52 34.5l-5 -30h85l83 467q27 154 -24 241.5
t-181 87.5z" />
    <glyph glyph-name="uni0041" unicode="A" 
d="M389 647h13l34 -357h-213zM546 0l-70 780h-119l-355 -780h87l102 220h251l21 -220h83z" />
    <glyph glyph-name="uni0042" unicode="B" 
d="M136 85l58 298h142q171 0 144 -139q-14 -76 -66 -117.5t-131 -41.5h-147zM347 695q86 0 118.5 -23t21.5 -81q-12 -63 -56 -93t-134 -30h-87l44 227h93zM461 437q48 21 71.5 55t34.5 87q20 103 -32.5 152t-176.5 49h-173l-151 -780h238q56 0 104 16.5t85.5 46.5t63 73
t35.5 96q14 78 -11.5 130t-87.5 75z" />
    <glyph glyph-name="uni0043" unicode="C" 
d="M491 181q-7 -22 -26.5 -43t-46 -37.5t-57.5 -26t-62 -9.5q-86 0 -120.5 79t-13.5 228q11 78 33 141.5t52.5 108.5t68.5 69.5t80 24.5q24 0 46.5 -8.5t40.5 -23.5t30 -36t16 -45l96 23q-6 35 -26.5 65.5t-51.5 54t-69 37t-79 13.5q-60 0 -114.5 -30.5t-98.5 -85.5
t-74.5 -131t-43.5 -167q-13 -90 -4 -163.5t37.5 -125t77 -80t114.5 -28.5q46 0 92.5 14.5t86.5 39t70 57t42 68.5z" />
    <glyph glyph-name="uni0044" unicode="D" 
d="M361 780q85 0 141 -21t85 -66.5t33 -118t-14 -175.5q-71 -399 -317 -399h-253l138 780h187zM309 85q80 0 133.5 76.5t79.5 225.5q28 158 -5 231t-127 73h-148l-106 -606h173z" />
    <glyph glyph-name="uni0045" unicode="E" 
d="M156 85h350l-17 -85h-434l151 780h434l-16 -85h-350l-47 -242h290l-16 -85h-290z" />
    <glyph glyph-name="uni0046" unicode="F" 
d="M500 312l16 85h-290l58 298h350l17 85h-436l-151 -780h86l60 312h290z" />
    <glyph glyph-name="uni0047" unicode="G" 
d="M595 294v7l8 49h-251l-10 -70l173 2q-18 -100 -75 -158.5t-145 -58.5t-120.5 77.5t-7.5 228.5q28 168 96.5 256.5t173.5 88.5q21 0 38 -4t33 -14.5t32 -28t35 -44.5l78 54q-52 61 -102 89t-110 28q-69 0 -130 -29t-109 -83t-81 -130t-48 -171q-29 -192 27 -295t191 -103
q60 0 110 21t88.5 59t64.5 92t38 121z" />
    <glyph glyph-name="uni0048" unicode="H" 
d="M513 409h-329l72 371h-84l-151 -780h84l65 337h329zM585 780l-151 -780h90q-5 15 -1 31.5t8 33.5l138 715h-84z" />
    <glyph glyph-name="uni0049" unicode="I" 
d="M587 710l13 70h-371l-13 -70h147l-113 -640h-173l-12 -70h434q-5 15 -1 32t7 34v4h-170l113 640h139z" />
    <glyph glyph-name="uni004A" unicode="J" 
d="M663 780h-407l-12 -70h317l-97 -545q-18 -103 -169 -103q-132 0 -186 77l-61 -62q12 -21 34.5 -38t53 -29t67 -18.5t75.5 -6.5q54 0 100.5 13t82 36.5t58.5 56.5t30 74l97 550q2 17 7 33.5t10 31.5z" />
    <glyph glyph-name="uni004B" unicode="K" 
d="M671 781l-110 -1l-370 -368l71 368l-84 1l-151 -781h84l52 269l38 39l221 -308h130l-277 382z" />
    <glyph glyph-name="uni004C" unicode="L" 
d="M500 0l13 70h-363l138 710h-86l-151 -780h449z" />
    <glyph glyph-name="uni004D" unicode="M" 
d="M571 622q-25 -49 -52 -98t-54 -94.5t-52 -85t-46 -69.5h-86q-6 27 -15.5 65t-20.5 83.5t-21.5 95.5t-17.5 99l-117 -618h-84l149 780h88q8 -51 21 -110t27 -115.5t28 -104.5t24 -78q21 27 52.5 75t67 105t70.5 117t62 111h93l-153 -780h-84z" />
    <glyph glyph-name="uni004E" unicode="N" 
d="M430 0l-199 591l-114 -591h-84l151 780h88l192 -576l110 576h93l-151 -780h-86z" />
    <glyph glyph-name="uni004F" unicode="O" 
d="M283 -15q129 0 218 103.5t123 296.5q17 96 11 172t-33 129.5t-74 81.5t-113 28q-131 0 -218 -102t-121 -297q-35 -200 19 -306t188 -106zM288 66q-86 0 -114.5 75t0.5 244q30 174 90.5 256t148.5 83q45 0 74.5 -18t44 -57t13.5 -101.5t-16 -150.5q-31 -175 -89.5 -253
t-151.5 -78z" />
    <glyph glyph-name="uni0050" unicode="P" 
d="M412 695q79 0 112.5 -37.5t19.5 -108.5q-14 -75 -66 -113.5t-139 -38.5h-138l58 298h153zM185 312h93q69 0 127 12t102.5 38t74.5 69t42 104q11 56 1.5 101t-36 77t-68.5 49.5t-98 17.5h-233l-151 -780h86z" />
    <glyph glyph-name="uni0051" unicode="Q" 
d="M529 397q-28 -163 -80.5 -241t-133.5 -88q20 49 39 98.5t32 95.5h-92q-12 -44 -29.5 -90.5t-36.5 -93.5q-51 23 -64 97t10 210q30 174 90.5 256t148.5 83q45 0 74.5 -18t44 -57t13.5 -101.5t-16 -150.5zM415 796q-131 0 -218 -102t-121 -297q-29 -164 2.5 -265
t118.5 -133q-16 -42 -27.5 -79.5t-15.5 -69.5h90q4 29 14 63t24 72h1q129 0 218 103.5t123 296.5q17 96 11 172t-33 129.5t-74 81.5t-113 28z" />
    <glyph glyph-name="uni0052" unicode="R" 
d="M538 549q-14 -75 -66 -113.5t-139 -38.5h-133l58 298h148q79 0 112.5 -37.5t19.5 -108.5zM189 780l-151 -780h86l60 312h88h16t16 1q16 -38 38.5 -76t41.5 -76.5t28 -78.5t-2 -82h100q12 44 1 85t-32 81t-45 78.5t-38 78.5q88 18 145.5 68t76.5 144q11 56 2 101t-35.5 77
t-69 49.5t-98.5 17.5h-228z" />
    <glyph glyph-name="uni0053" unicode="S" 
d="M377 434q-91 17 -129.5 55t-30.5 93q10 65 56.5 102.5t127.5 37.5q24 0 48 -3.5t42 -19t25 -46t-4 -84.5l75 13q15 65 6 106.5t-33.5 65t-60 32.5t-72.5 9q-51 0 -99.5 -15.5t-88.5 -42.5t-66.5 -64.5t-34.5 -82.5q-7 -48 5.5 -87t42.5 -69t75 -50.5t103 -30.5
q34 -6 60 -15.5t42 -26t21.5 -41t-0.5 -60.5q-15 -81 -72 -118t-142 -37q-35 0 -72.5 12.5t-66.5 35.5l-54 -51q36 -36 81 -51.5t104 -15.5q61 0 112.5 13.5t91 41t65 69t34.5 97.5q8 53 0 91.5t-32 65.5t-63.5 44t-95.5 27z" />
    <glyph glyph-name="uni0054" unicode="T" 
d="M679 780l-13 -70h-215l-138 -710h-84l137 710h-208l14 70h507z" />
    <glyph glyph-name="uni0055" unicode="U" 
d="M476 206l112 574h84l-110 -568q-9 -50 -33 -92t-61 -72t-87 -46.5t-112 -16.5q-122 0 -171.5 60.5t-30.5 160.5l112 574h84l-110 -568q-14 -76 26.5 -116.5t114.5 -40.5q68 0 118 37.5t64 113.5z" />
    <glyph glyph-name="uni0056" unicode="V" 
d="M608 780l-320 -647l-80 647h-89l103 -780h86l392 780h-92z" />
    <glyph glyph-name="uni0057" unicode="W" 
d="M611 780q-10 -61 -27.5 -148.5t-40 -178.5t-47.5 -175t-49 -139q-16 77 -29.5 159t-15.5 160l-85 4q-29 -78 -71.5 -160.5t-84.5 -162.5q-3 36 -2.5 85.5t3.5 107t9 119.5t12.5 121.5t14 113t13.5 94.5h-84q-7 -52 -14 -116.5t-13 -135.5t-10 -144.5t-5.5 -143t-1 -131
t4.5 -109.5h81q22 40 45.5 84t46 89t43 90t35.5 85q1 -39 6.5 -83.5t13 -90t16 -90t17.5 -84.5h80q21 48 43.5 109.5t44.5 131t42.5 143t38.5 144.5t32 135.5t22 116.5h-84z" />
    <glyph glyph-name="uni0058" unicode="X" 
d="M672 780h-85l-225 -313l-127 313h-93l160 -398l-274 -382h90l215 303l122 -303h97l-158 389z" />
    <glyph glyph-name="uni0059" unicode="Y" 
d="M704 780h-88l-267 -357l-154 357h-92l186 -456h1l-46 -324h85l46 325z" />
    <glyph glyph-name="uni005A" unicode="Z" 
d="M652 780h-484l-11 -80h375l-215 -270h-151l-12 -70h108l-223 -280l-11 -80h534l11 80h-424l222 280h154l12 70h-110l214 270z" />
    <glyph glyph-name="uni005B" unicode="[" 
d="M281 780l-173 -980h261l14 78h-170l145 823h170l14 79h-261z" />
    <glyph glyph-name="uni005C" unicode="\" 
d="M129 803l322 -940l68 39l-322 939z" />
    <glyph glyph-name="uni005D" unicode="]" 
d="M517 780h-261l-14 -79h170l-144 -823h-170l-13 -78h261z" />
    <glyph glyph-name="uni005E" unicode="^" 
d="M505 570h89l-152 260h-85l-208 -260h91l149 157z" />
    <glyph glyph-name="uni005F" unicode="_" 
d="M636 -200v70h-611v-70h611z" />
    <glyph glyph-name="uni0060" unicode="`" horiz-adv-x="600" 
d="M249 801l227 -139l37 52l-208 162z" />
    <glyph glyph-name="uni0061" unicode="a" 
d="M476 178l-23 -132q-42 -29 -83.5 -45t-89.5 -16q-61 0 -107.5 21t-75 59.5t-38 93.5t2.5 122q12 70 39 126.5t65.5 96t86.5 61t103 21.5q65 0 108.5 -31.5t61.5 -91.5l-17 -97q-29 78 -64.5 112.5t-87.5 34.5q-37 0 -71.5 -17.5t-62.5 -48.5t-48.5 -73.5t-29.5 -92.5
q-17 -99 24 -157t128 -58q52 0 97 29t82 83zM545 570h85l-88 -504q-3 -17 -7 -34t1 -32h-91z" />
    <glyph glyph-name="uni0062" unicode="b" 
d="M519 281q-9 -49 -30 -89t-51 -68t-68 -43t-81 -15q-51 0 -85.5 28.5t-52.5 81.5l36 190q57 78 105.5 112.5t100.5 34.5q37 0 65 -17.5t45 -48.5t21.5 -73.5t-5.5 -92.5zM421 586q-64 0 -119 -31t-96 -90l61 315l-84 6l-152 -786h107q-5 7 -7.5 18.5t-3.5 25.5
q31 -29 66 -44t82 -15q62 0 115.5 21t96.5 59.5t72.5 93.5t42.5 122q14 70 7.5 126.5t-30 96t-63.5 61t-95 21.5z" />
    <glyph glyph-name="uni0063" unicode="c" 
d="M494 53l-33 57q-24 -20 -66 -32.5t-80 -12.5q-72 0 -106 28.5t-34 90.5q0 50 16.5 106.5t45.5 104.5t69 79.5t87 31.5q38 0 59.5 -23.5t21.5 -61.5q0 -16 -5 -38l111 18q1 5 1 10.5v10.5q0 35 -13.5 65t-37.5 52t-57 34.5t-72 12.5q-68 0 -126.5 -34.5t-101 -90
t-66.5 -125.5t-24 -141q0 -100 58.5 -154.5t170.5 -54.5q60 0 182 67z" />
    <glyph glyph-name="uni0064" unicode="d" 
d="M457 178l-6 -29l46 217q-26 78 -60.5 112.5t-86.5 34.5q-37 0 -72 -17.5t-64.5 -48.5t-51 -73.5t-32.5 -92.5q-20 -99 18.5 -157t125.5 -58q52 0 98.5 29t84.5 83zM451 149l-21 -100zM507 414l-10 -48zM429 46q-43 -29 -84.5 -45t-89.5 -16q-61 0 -107 21t-73 59.5
t-34.5 93.5t6.5 122q15 70 43.5 126.5t68.5 96t88.5 61t103.5 21.5q65 0 107.5 -31.5t58.5 -91.5l-10 -49l77 366h92q-5 -15 -10.5 -32t-9.5 -34l-127 -606q-15 -67 16 -67q9 0 25 8l5 -39q-26 -14 -47.5 -19.5t-37.5 -5.5q-37 0 -51.5 16.5t-9.5 44.5z" />
    <glyph glyph-name="uni0065" unicode="e" 
d="M373 514q27 0 49.5 -8t38 -21.5t24 -29.5t8.5 -33q0 -35 -28.5 -57t-73 -35t-100 -19t-109.5 -9q9 41 26.5 79.5t42.5 68t56 47t66 17.5zM580 416q0 31 -13 61.5t-37.5 54.5t-59 39t-78.5 15q-60 0 -111 -26.5t-90.5 -73t-66 -108.5t-36.5 -133q-8 -57 4.5 -104.5
t42.5 -82t74.5 -54t101.5 -19.5q63 0 122.5 25t107.5 71l-42 62q-55 -47 -99 -64t-82 -17t-67.5 13.5t-48.5 37.5t-27 58t-2 74q14 -1 29 -1.5t31 -0.5q62 0 124 8t111.5 27.5t80.5 53t31 84.5z" />
    <glyph glyph-name="uni0066" unicode="f" 
d="M359 71q0 -54 -19 -102.5t-64 -80.5q-10 -7 -19 -7q-20 0 -28 31t-8 79q0 38 4 81.5t11.5 86.5t17 82t19.5 67h10q11 -8 24.5 -31t25 -55.5t19 -71.5t7.5 -79zM297 385q26 80 43.5 141.5t33 102.5t32.5 62t41 21q28 0 49.5 -23.5t21.5 -58.5q0 -24 -13 -49l29 -17
q24 26 35 53t11 53q0 28 -11 51t-30 39.5t-43.5 26t-51.5 9.5q-53 0 -88 -39.5t-59 -100.5t-42 -133.5t-38 -138.5h-129v-77h101q-10 -27 -20 -64t-17.5 -79.5t-12 -87.5t-4.5 -88q0 -36 4.5 -72.5t16.5 -65t32.5 -46.5t51.5 -18q20 0 38.5 8t36.5 21q73 52 102.5 115.5
t29.5 130.5q0 71 -23.5 136t-52.5 111l168 2l4 75h-246z" />
    <glyph glyph-name="uni0067" unicode="g" 
d="M295 136q-37 0 -66.5 15t-48.5 41t-26 61t0 75q8 39 28 73t49 58.5t64.5 39t72.5 14.5q54 0 92.5 -28.5t55.5 -82.5l-33 -172q-33 -45 -82.5 -69.5t-105.5 -24.5zM536 501q-43 85 -154 85q-60 0 -111.5 -18t-92 -52t-68 -81.5t-39.5 -106.5q-12 -60 -2.5 -110.5
t37.5 -86.5t72 -56t102 -20q43 0 89.5 16.5t92.5 47.5l-23 -119q-11 -51 -63.5 -77t-127.5 -26q-68 0 -118 22l-67 -62q34 -17 77 -27t93 -10q54 0 103.5 13t88.5 36.5t65 56.5t34 74l97 504q4 17 9 34t10 32h-91z" />
    <glyph glyph-name="uni0068" unicode="h" 
d="M504 63q-8 0 -12 6t0 22q5 20 24 78t48 161q14 52 9.5 98.5t-24 81.5t-52.5 55.5t-75 20.5q-68 0 -120.5 -41.5t-100.5 -134.5l75 370l-83 6l-160 -786h85l55 274q32 63 60 107t54 71.5t51.5 40.5t53.5 13q30 0 52.5 -15t34.5 -40.5t14 -60t-9 -72.5q-34 -131 -50 -193
t-19 -71q-7 -29 3 -49t34 -20q17 1 36 7q18 6 38.5 17.5t42.5 32.5l-13 37q-21 -10 -33.5 -13t-18.5 -3z" />
    <glyph glyph-name="uni0069" unicode="i" 
d="M487 159q-26 -45 -63.5 -69.5t-74.5 -24.5q-90 0 -69 130q6 36 18 85t25.5 100.5t26.5 101.5t22 88l-197 -11l-16 -61l112 4q-10 -37 -21 -79t-21.5 -83t-19 -78.5t-14.5 -66.5q-19 -96 16 -153t123 -57q32 0 58.5 12t48 31.5t38.5 46t30 54.5zM305 734q-9 -63 54 -63
q62 0 71 63q9 62 -53 62q-63 0 -72 -62z" />
    <glyph glyph-name="uni006A" unicode="j" 
d="M432 734q-12 -63 50 -63q63 0 75 63q11 62 -50 62q-30 0 -50 -16t-25 -46zM514 570l-203 -10l-12 -63l115 3l-97 -499q-13 -66 -41.5 -102t-78.5 -36q-22 0 -39 13.5t-25.5 37.5t-6 57t20.5 72l-48 -17q-18 -45 -22.5 -88.5t5.5 -77.5t35 -54.5t65 -20.5q91 0 146.5 57.5
t74.5 156.5z" />
    <glyph glyph-name="uni006B" unicode="k" 
d="M205 299q21 -24 40 -53t36 -59q-27 3 -50 13.5t-41 26.5zM476 348q-16 -52 -40.5 -90t-63.5 -57q-35 58 -68.5 112.5t-76.5 91.5l12 59q29 27 61.5 43t66.5 16q38 0 62.5 -17t37.5 -43t15 -57t-6 -58zM570 342q11 39 5.5 82t-28.5 79t-64 59.5t-100 23.5q-38 0 -71 -19.5
t-62 -47.5l53 261l-84 6l-160 -786h85l29 143q53 -28 109 -28q10 0 19.5 0.5t18.5 1.5q22 -37 43 -68t46 -50l119 1q-35 27 -63.5 62.5t-54.5 75.5q116 49 160 204z" />
    <glyph glyph-name="uni006C" unicode="l" 
d="M450 701q10 0 16.5 -6t10 -15.5t4.5 -20.5t1 -20q0 -47 -35 -107t-103 -126q30 137 58.5 216t47.5 79zM371 65q-73 0 -73 85q0 10 1 21t3 24q6 32 11.5 62t11.5 59q60 44 102 86t68 83t38 83.5t12 88.5q0 30 -10 55t-26 44t-34.5 29.5t-36.5 10.5q-22 0 -45 -32
t-45 -90.5t-43 -141t-39 -183.5q-20 -19 -39.5 -32t-39.5 -22.5t-40.5 -17.5t-42.5 -18l13 -56q38 16 69 32t62 36q-8 -37 -15 -72.5t-7 -75.5q0 -69 29 -103.5t101 -34.5q33 0 60 12t49 31.5t39 46t30 54.5l-22 30q-26 -45 -64 -69.5t-77 -24.5z" />
    <glyph glyph-name="uni006D" unicode="m" 
d="M186 570h-85l-100 -570h91q-5 15 -1 32t7 34l63 362q25 37 44 55t42 18q32 0 44.5 -24t7.5 -57l-74 -420h81l73 415q23 50 47 70.5t41 20.5q26 0 36.5 -15t10.5 -40.5t-6.5 -59.5t-15.5 -72q-30 -133 -42 -195t-14 -71q-8 -29 4 -48.5t37 -19.5l8 1t22.5 5.5t34 14
t40.5 26.5l-15 37q-9 -4 -17.5 -6.5t-15.5 -2.5q-12 0 -18.5 6.5t-3.5 21.5q5 20 19.5 78.5t33.5 162.5q11 62 14.5 109.5t-5.5 80.5t-33 50t-66 17q-32 0 -56.5 -21.5t-43.5 -54.5q-8 35 -30 55.5t-60 20.5q-36 0 -60 -15t-48 -52z" />
    <glyph glyph-name="uni006E" unicode="n" 
d="M216 500q3 20 15 40t19 30h-107l-100 -570h85l50 286l-3 -19q32 65 59 110t53 74t52 42t54 13q30 0 52.5 -15t35.5 -40.5t15.5 -60t-7.5 -72.5q-33 -131 -47.5 -193t-17.5 -71q-6 -29 4 -49t34 -20q17 1 37 7q17 6 37 17.5t42 32.5l-13 37q-21 -10 -33.5 -13t-18.5 -3
q-8 0 -12.5 6t-0.5 22q5 20 23.5 78t44.5 161q13 52 8 98.5t-25.5 81.5t-53.5 55.5t-75 20.5q-70 0 -123 -44t-101 -144z" />
    <glyph glyph-name="uni006F" unicode="o" 
d="M291 -15q59 0 110 21.5t90.5 61t66 95t35.5 123.5t-2 123.5t-40.5 94.5t-75.5 60.5t-107 21.5q-60 0 -110.5 -20t-89.5 -57.5t-64.5 -91.5t-34.5 -121q-10 -71 1 -128.5t40 -98t75 -62.5t106 -22zM293 58q-75 0 -108 60.5t-18 167.5q16 110 67.5 169.5t129.5 60.5
t113.5 -55.5t20.5 -164.5q-16 -113 -70 -175.5t-135 -62.5z" />
    <glyph glyph-name="uni0070" unicode="p" 
d="M144 177l-23 -131l23 132v-1zM178 367l16 96zM178 367q55 77 103 111.5t100 34.5q37 0 65.5 -17.5t45.5 -48.5t22.5 -73.5t-3.5 -92.5q-9 -49 -29 -89t-49.5 -68t-67 -43t-80.5 -15q-52 0 -87 29t-54 82zM201 500q3 20 15 40t19 30h-107l-136 -776l86 6l43 246
q32 -29 67.5 -45t83.5 -16q62 0 115.5 21t95.5 59.5t70.5 93.5t40.5 122q12 70 5 126.5t-31 96t-64.5 61t-95.5 21.5q-65 0 -119.5 -31.5t-93.5 -90.5z" />
    <glyph glyph-name="uni0071" unicode="q" 
d="M509 367q-28 77 -63 111.5t-87 34.5q-37 0 -72 -17.5t-63.5 -48.5t-49.5 -73.5t-31 -92.5q-19 -99 21 -157t127 -58q52 0 97.5 29t83.5 83l-8 -42zM464 136l-17 -90zM520 425l-11 -59zM548 570h91q-5 -15 -10.5 -32t-8.5 -34l-99 -516q-8 -38 -11.5 -64.5t-2.5 -46.5
t7.5 -34.5t18.5 -27.5l-81 -33q-24 28 -30 67t2 80l23 117q-43 -29 -84.5 -45t-89.5 -16q-61 0 -107 21t-74 59.5t-36.5 93.5t4.5 122q14 70 41.5 126.5t66.5 96t87.5 61t103.5 21.5q65 0 108 -31.5t60 -91.5l-7 -38z" />
    <glyph glyph-name="uni0072" unicode="r" 
d="M232 538l-85 -32q12 -7 21.5 -14.5t16 -17.5t8.5 -24t-2 -35l-78 -415h82l69 344q11 26 34 49.5t53.5 41.5t65 28.5t66.5 10.5q37 0 62 -14l65 82q-45 21 -72 24.5t-46 3.5q-15 0 -43.5 -7.5t-60 -22.5t-62 -37.5t-50.5 -51.5q3 19 -1 32.5t-11 23.5t-16 17t-16 14z" />
    <glyph glyph-name="uni0073" unicode="s" 
d="M452 365q-24 32 -32.5 52.5t-8.5 43.5q0 13 1.5 24t5 23t9 27t12.5 35h-109q-22 -62 -51 -119.5t-63.5 -108t-72.5 -92t-79 -70.5l62 -66q24 18 51 46.5t55 65.5t56.5 80.5t54.5 90.5q6 -24 16.5 -41.5t32.5 -49.5q37 -54 57 -90.5t20 -63.5q0 -39 -34.5 -63.5
t-90.5 -24.5q-11 0 -23.5 0.5t-20.5 2.5q-39 5 -68 24l-39 -71q14 -7 32.5 -13.5t39.5 -11t42 -7t40 -2.5q43 0 80.5 13t65 35.5t43 53t15.5 66.5q0 17 -6.5 41.5t-19.5 53t-31 58.5t-42 58z" />
    <glyph glyph-name="uni0074" unicode="t" 
d="M277 195q3 16 8.5 42.5t12.5 59.5t15 71.5t17 78.5l12 53h181l10 70h-176q15 68 26 124.5t16 85.5h-84q-4 -29 -15.5 -85.5t-26.5 -124.5h-111l-10 -70h106q-3 -15 -6.5 -29.5t-6.5 -29.5q-9 -40 -17 -77.5t-15.5 -69.5t-12.5 -57.5t-8 -41.5q-5 -26 -6 -47
q-4 -75 32.5 -119t112.5 -44q32 0 58.5 12t48 31.5t38.5 46t30 54.5l-22 30q-26 -45 -63.5 -69.5t-74.5 -24.5q-81 0 -72 103q0 12 3 27z" />
    <glyph glyph-name="uni0075" unicode="u" 
d="M611 570h-85l-87 -451l9 48q-21 -26 -38.5 -46t-34.5 -33.5t-36 -20.5t-42 -7q-35 0 -61.5 15t-43 40.5t-21.5 58.5t2 69l63 328h-91l-59 -307q-11 -57 -5 -107.5t26.5 -88.5t54.5 -60.5t80 -22.5q54 0 106 26t84 71l-16 -82h91q-5 15 -1 32l8 34z" />
    <glyph glyph-name="uni0076" unicode="v" 
d="M543 570l-246 -437l-79 437h-89l102 -570h86l317 570h-91z" />
    <glyph glyph-name="uni0077" unicode="w" 
d="M571 586q-19 -123 -55 -230t-84 -217q-16 77 -24.5 144t-8.5 145l-85 4q-27 -78 -60.5 -145.5t-75.5 -147.5q-11 107 -8.5 215t21.5 232h-84q-22 -155 -18 -299t16 -287h81q22 40 42 76t38 72t34.5 73t31.5 77q3 -78 15.5 -148t29.5 -150h80q32 71 62 142.5t56.5 144
t47 147t32.5 152.5h-84z" />
    <glyph glyph-name="uni0078" unicode="x" 
d="M604 570h-91l-176 -220l-112 220h-89l146 -288l-225 -282h93l168 211l107 -211h89l-142 279z" />
    <glyph glyph-name="uni0079" unicode="y" 
d="M528 570q-12 -32 -34 -80t-51.5 -105.5t-64 -121t-70.5 -127.5q-14 60 -29.5 120.5t-28.5 117t-21 106.5t-7 90h-83q0 -49 11.5 -112t29 -133.5t37 -144.5t34.5 -145l-51 -86q-23 -45 -53.5 -69.5t-66.5 -24.5h-10.5t-10.5 2l-22 -66q21 -4 46 -4q59 0 104.5 30.5
t83.5 96.5q49 82 103 177t102.5 185.5t88 168t58.5 125.5h-95z" />
    <glyph glyph-name="uni007A" unicode="z" 
d="M582 570h-411l-10 -70h324l-397 -430l-10 -70h434q-5 15 -2 32t5 34l1 4h-340l396 430z" />
    <glyph glyph-name="uni007B" unicode="{" 
d="M554 714l6 66q-9 1 -18 1h-17q-90 0 -146.5 -37t-67.5 -105q-4 -27 -1.5 -50t6.5 -45.5t6.5 -47.5t-2.5 -55q-3 -19 -10.5 -38.5t-24 -35.5t-44 -26.5t-71.5 -10.5l-8 -80q44 0 68 -9.5t34.5 -24.5t11 -33t-2.5 -35q-5 -33 -15 -55.5t-20.5 -42t-19.5 -39t-14 -46.5
q-7 -42 4 -73.5t35.5 -52t59.5 -30.5t76 -10h15t15 1l7 66q-19 -3 -38 -3q-41 0 -68 18t-20 64q3 22 12.5 43t20.5 43t21.5 47.5t15.5 57.5q5 27 3.5 53t-10.5 47t-26.5 36t-45.5 19q59 11 88 48.5t37 89.5q5 32 3.5 61t-4.5 55t-5.5 48.5t0.5 41.5q7 45 40.5 63.5
t76.5 18.5q19 0 37 -3z" />
    <glyph glyph-name="uni007C" unicode="|" 
d="M360 780l-173 -980h91l173 980h-91z" />
    <glyph glyph-name="uni007D" unicode="}" 
d="M213 714q20 3 37 3q21 0 39.5 -4.5t31.5 -14t19 -25t2 -38.5q-3 -19 -13 -41.5t-21 -48.5t-21.5 -55t-15.5 -61q-8 -52 9 -89.5t72 -48.5q-29 -4 -51 -19t-38 -36t-25.5 -47t-13.5 -53q-5 -32 -2.5 -57.5t6.5 -47.5t7 -43t-1 -43q-8 -46 -40 -64t-74 -18q-19 0 -37 3
l-14 -66q8 -1 15 -1h14q42 0 80.5 10t69 30.5t51.5 52t27 73.5q4 27 1 46.5t-7.5 39t-7 42t2.5 55.5q3 17 9 35t21 33t42 24.5t71 9.5l17 80q-44 0 -68.5 10.5t-35.5 26.5t-12.5 35.5t1.5 38.5q5 30 15.5 55t21.5 47.5t21 45.5t14 50q11 68 -34 105t-135 37h-18t-18 -1z" />
    <glyph glyph-name="uni007E" unicode="~" 
d="M243 405q-48 0 -92 -30.5t-80 -88.5l53 -47q58 86 113 86q24 0 40.5 -15.5t34.5 -34t42 -34t62 -15.5q30 0 56 11t48 28.5t39.5 38.5t30.5 41l-55 46q-24 -36 -53.5 -60.5t-59.5 -24.5q-23 0 -39 15.5t-34 34t-42.5 34t-63.5 15.5z" />
    <glyph glyph-name="i.loclTRK" 
d="M487 159q-26 -45 -63.5 -69.5t-74.5 -24.5q-90 0 -69 130q6 36 18 85t25.5 100.5t26.5 101.5t22 88l-197 -11l-16 -61l112 4q-10 -37 -21 -79t-21.5 -83t-19 -78.5t-14.5 -66.5q-19 -96 16 -153t123 -57q32 0 58.5 12t48 31.5t38.5 46t30 54.5zM307 734q0 -63 63 -63
q62 0 62 63q0 62 -62 62q-30 0 -46.5 -16t-16.5 -46z" />
    <glyph glyph-name="zero.dnom" 
d="M344 350q-32 0 -60.5 -13.5t-51.5 -38t-38.5 -58t-20.5 -73.5q-5 -39 1.5 -72.5t23.5 -57.5t43.5 -38t59.5 -14q32 0 61 13.5t52 36.5t38.5 55t20.5 69q6 41 -0.5 76t-24 60.5t-44 40t-60.5 14.5zM232 159q10 71 41.5 112.5t73.5 41.5q31 0 49 -24l-162 -203q-8 32 -2 73
zM416 167q-9 -65 -41 -103t-76 -38q-26 0 -43 17l159 203q7 -32 1 -79z" />
    <glyph glyph-name="one.dnom" 
d="M283 0h55l49 347h-56q-17 -19 -44.5 -33.5t-66.5 -22.5l4 -45q38 5 63.5 12.5t36.5 22.5z" />
    <glyph glyph-name="two.dnom" 
d="M410 266q-4 -27 -30.5 -54t-63 -55t-78 -56t-76.5 -58l-5 -43h281l6 43h-206q35 30 73 57t71 53.5t56 52.5t27 53q3 18 -5.5 34.5t-25.5 29t-41 20t-52 7.5q-42 0 -79.5 -18.5t-59.5 -48.5l41 -22q23 26 48.5 36.5t54.5 10.5q70 0 64 -42z" />
    <glyph glyph-name="three.dnom" 
d="M216 304l27 -33q11 16 31.5 23.5t45.5 7.5q32 0 54.5 -9t18.5 -39t-30.5 -48.5t-73.5 -18.5h-22l-5 -39h26q96 0 87 -65q-5 -32 -29.5 -44t-65.5 -12q-36 0 -54 7.5t-35 30.5l-34 -21q16 -29 43.5 -44t75.5 -15q62 0 106.5 23.5t50.5 66.5q5 32 -12.5 56.5t-44.5 33.5
q32 13 51 34.5t23 46.5q3 23 -6.5 41t-27.5 30.5t-42 19.5t-50 7q-32 0 -63 -10t-45 -30z" />
    <glyph glyph-name="four.dnom" 
d="M425 131h-65q2 16 6 32.5t9 30.5h-62l-9 -63h-82l169 216h-61l-168 -216l-6 -43h142l-12 -88h56l12 88h65z" />
    <glyph glyph-name="five.dnom" 
d="M236 169l-51 -2l43 177h214l-6 -44h-162l-24 -95q10 12 30.5 23t49.5 11q25 0 46 -9.5t35 -26t20.5 -39.5t2.5 -51t-19.5 -51.5t-38.5 -40.5t-51.5 -26.5t-57.5 -9.5q-64 0 -113 46l38 34q17 -18 38.5 -27t50.5 -9q39 0 64.5 17.5t31.5 58.5q13 92 -69 92q-22 0 -41.5 -8
t-30.5 -20z" />
    <glyph glyph-name="six.dnom" 
d="M301 29q-39 0 -59 19.5t-16 54.5l6 30q17 19 43 32t56 13q38 0 55.5 -19t12.5 -51q-5 -34 -30 -56.5t-68 -22.5zM449 327q-17 8 -39.5 14.5t-50.5 6.5q-33 0 -63 -10.5t-53.5 -29t-38.5 -45t-20 -58.5l-14 -98q-8 -55 29.5 -88.5t103.5 -33.5q32 0 58.5 9.5t46 25
t31.5 36.5t15 44q4 27 -4.5 49t-25.5 37.5t-41.5 23.5t-53.5 8q-36 0 -56 -10.5t-37 -24.5l4 18q7 50 38 78t82 28q15 0 32.5 -2.5t28.5 -8.5z" />
    <glyph glyph-name="seven.dnom" 
d="M474 347h-275l-7 -43h210q-30 -34 -64.5 -68t-65 -71t-53.5 -77.5t-30 -87.5h62q7 47 30.5 87.5t55.5 77.5t67 71t64 68z" />
    <glyph glyph-name="eight.dnom" 
d="M388 79q-4 -25 -30.5 -39.5t-69.5 -14.5q-82 0 -76 46q3 24 30.5 46t69.5 36q41 -14 60 -33.5t16 -40.5zM393 266q-4 -22 -25 -41t-54 -33q-32 13 -45.5 30t-11.5 36q3 23 26 39t55 16q27 0 43 -13.5t12 -33.5zM438 262q5 38 -24 63t-81 25q-51 0 -83 -21t-37 -59
q-5 -32 9.5 -57t42.5 -39q-44 -16 -69 -40.5t-30 -55.5q-5 -40 29.5 -66.5t94.5 -26.5q59 0 99.5 24t45.5 62q5 34 -14 59t-58 41q32 13 51.5 37.5t23.5 53.5z" />
    <glyph glyph-name="nine.dnom" 
d="M327 301q40 0 59.5 -19.5t11.5 -74.5q-18 -23 -44 -36t-56 -13q-75 0 -66 67q10 76 95 76zM171 14q17 -15 37.5 -22t51.5 -7q75 0 125 39t60 105l14 97q4 26 -4 48.5t-26 39t-44 25.5t-59 9q-59 0 -100.5 -32t-48.5 -83q-7 -53 26.5 -85.5t96.5 -32.5q26 0 46.5 7.5
t46.5 28.5l-4 -18q-11 -50 -43 -78.5t-87 -28.5q-45 0 -60 18z" />
    <glyph glyph-name="zero.numr" 
d="M404 780q-32 0 -60.5 -13.5t-51.5 -38t-38.5 -58t-20.5 -73.5q-5 -39 1.5 -72.5t23.5 -57.5t43.5 -38t59.5 -14q32 0 61 13.5t52 36.5t38.5 55t20.5 69q6 41 -0.5 76t-24 60.5t-44 40t-60.5 14.5zM292 589q10 71 41.5 112.5t73.5 41.5q31 0 49 -24l-162 -203q-8 32 -2 73
zM476 597q-9 -65 -41 -103t-76 -38q-26 0 -43 17l159 203q7 -32 1 -79z" />
    <glyph glyph-name="one.numr" 
d="M344 433h55l49 347h-56q-17 -19 -44.5 -33.5t-66.5 -22.5l4 -45q38 5 63.5 12.5t36.5 22.5z" />
    <glyph glyph-name="two.numr" 
d="M473 712q-4 -27 -30.5 -54t-63 -55t-78 -56t-76.5 -58l-5 -43h281l6 43h-206q35 30 73 57t71 53.5t56 52.5t27 53q3 18 -5.5 34.5t-25.5 29t-41 20t-52 7.5q-42 0 -79.5 -18.5t-59.5 -48.5l41 -22q23 26 48.5 36.5t54.5 10.5q70 0 64 -42z" />
    <glyph glyph-name="three.numr" 
d="M280 756l27 -33q11 16 31.5 23.5t45.5 7.5q32 0 54.5 -9t18.5 -39t-30.5 -48.5t-73.5 -18.5h-22l-5 -39h26q96 0 87 -65q-5 -32 -29.5 -44t-65.5 -12q-36 0 -54 7.5t-35 30.5l-34 -21q16 -29 43.5 -44t75.5 -15q62 0 106.5 23.5t50.5 66.5q5 32 -12.5 56.5t-44.5 33.5
q32 13 51 34.5t23 46.5q3 23 -6.5 41t-27.5 30.5t-42 19.5t-50 7q-32 0 -63 -10t-45 -30z" />
    <glyph glyph-name="four.numr" 
d="M486 564h-65q2 16 6 32.5t9 30.5h-62l-9 -63h-82l169 216h-61l-168 -216l-6 -43h142l-12 -88h56l12 88h65z" />
    <glyph glyph-name="five.numr" 
d="M297 605l-51 -2l43 177h214l-6 -44h-162l-24 -95q10 12 30.5 23t49.5 11q25 0 46 -9.5t35 -26t20.5 -39.5t2.5 -51t-19.5 -51.5t-38.5 -40.5t-51.5 -26.5t-57.5 -9.5q-64 0 -113 46l38 34q17 -18 38.5 -27t50.5 -9q39 0 64.5 17.5t31.5 58.5q13 92 -69 92q-22 0 -41.5 -8
t-30.5 -20z" />
    <glyph glyph-name="six.numr" 
d="M364 477q-39 0 -59 19.5t-16 54.5l6 30q17 19 43 32t56 13q38 0 55.5 -19t12.5 -51q-5 -34 -30 -56.5t-68 -22.5zM512 775q-17 8 -39.5 14.5t-50.5 6.5q-33 0 -63 -10.5t-53.5 -29t-38.5 -45t-20 -58.5l-14 -98q-8 -55 29.5 -88.5t103.5 -33.5q32 0 58.5 9.5t46 25
t31.5 36.5t15 44q4 27 -4.5 49t-25.5 37.5t-41.5 23.5t-53.5 8q-36 0 -56 -10.5t-37 -24.5l4 18q7 50 38 78t82 28q15 0 32.5 -2.5t28.5 -8.5z" />
    <glyph glyph-name="seven.numr" 
d="M535 780h-275l-7 -43h210q-30 -34 -64.5 -68t-65 -71t-53.5 -77.5t-30 -87.5h62q7 47 30.5 87.5t55.5 77.5t67 71t64 68z" />
    <glyph glyph-name="eight.numr" 
d="M451 525q-4 -25 -30.5 -39.5t-69.5 -14.5q-82 0 -76 46q3 24 30.5 46t69.5 36q41 -14 60 -33.5t16 -40.5zM456 712q-4 -22 -25 -41t-54 -33q-32 13 -45.5 30t-11.5 36q3 23 26 39t55 16q27 0 43 -13.5t12 -33.5zM501 708q5 38 -24 63t-81 25q-51 0 -83 -21t-37 -59
q-5 -32 9.5 -57t42.5 -39q-44 -16 -69 -40.5t-30 -55.5q-5 -40 29.5 -66.5t94.5 -26.5q59 0 99.5 24t45.5 62q5 34 -14 59t-58 41q32 13 51.5 37.5t23.5 53.5z" />
    <glyph glyph-name="nine.numr" 
d="M390 749q40 0 59.5 -19.5t11.5 -74.5q-18 -23 -44 -36t-56 -13q-75 0 -66 67q10 76 95 76zM234 462q17 -15 37.5 -22t51.5 -7q75 0 125 39t60 105l14 97q4 26 -4 48.5t-26 39t-44 25.5t-59 9q-59 0 -100.5 -32t-48.5 -83q-7 -53 26.5 -85.5t96.5 -32.5q26 0 46.5 7.5
t46.5 28.5l-4 -18q-11 -50 -43 -78.5t-87 -28.5q-45 0 -60 18z" />
    <glyph glyph-name="fraction" 
d="M430 457l-36 40l-610 -361l36 -48z" />
    <glyph glyph-name="underscore.more" 
d="M603 -130h-661l-10 -70h661z" />
    <glyph glyph-name="asterisk_slash.liga" 
d="M1214 803l-58 38l-586 -939l57 -39zM412 558l-119 -115l58 -48l108 87l93 -99l66 38l-87 128l167 59l-21 64l-146 -35l25 155l-73 5l-34 -151l-119 48l-47 -60z" />
    <glyph glyph-name="braceleft_bar.liga" 
d="M505 -134q-27 0 -45 2t-28 10t-12.5 24t1.5 43q8 39 16.5 90.5t17.5 105.5q11 64 -6 102.5t-71 47.5q60 11 88.5 43.5t39.5 94.5q9 54 19 108t16 88q5 30 15.5 47.5t26.5 26.5t37 12t48 3h80l-149 -848h-94zM1075 780h-399q-46 0 -84 -7t-66.5 -24t-47 -47t-26.5 -77
q-7 -46 -16 -92.5t-17 -91.5q-4 -27 -12 -47.5t-24 -34.5t-43 -21.5t-71 -7.5l-11 -80q44 0 68.5 -7t35 -20t10.5 -32t-4 -43q-8 -50 -16 -95t-16 -88q-9 -48 -2 -80t28 -50.5t55.5 -26.5t80.5 -8h439l9 66h-256l149 848h227z" />
    <glyph glyph-name="bracketleft_bar.liga" 
d="M366 -122l129 823h251l-145 -823h-235zM1075 780h-660l-151 -980h673l11 78h-256l145 823h227z" />
    <glyph glyph-name="colon_colon.liga" 
d="M359 468q-11 -63 52 -63q62 0 73 63q11 62 -51 62q-30 0 -49.5 -16t-24.5 -46zM878 468q-11 -63 52 -63q62 0 73 63q11 62 -51 62q-30 0 -49.5 -16t-24.5 -46zM281 88q-11 -63 52 -63q62 0 73 63q11 62 -51 62q-30 0 -49.5 -16t-24.5 -46zM800 88q-11 -63 52 -63
q62 0 73 63q11 62 -51 62q-30 0 -49.5 -16t-24.5 -46z" />
    <glyph glyph-name="colon_colon_colon.liga" 
d="M417 468q-11 -63 52 -63q62 0 73 63q11 62 -51 62q-30 0 -49.5 -16t-24.5 -46zM956 468q-11 -63 52 -63q62 0 73 63q11 62 -51 62q-30 0 -49.5 -16t-24.5 -46zM1496 468q-11 -63 52 -63q62 0 73 63q11 62 -51 62q-30 0 -49.5 -16t-24.5 -46zM339 88q-11 -63 52 -63
q62 0 73 63q11 62 -51 62q-30 0 -49.5 -16t-24.5 -46zM878 88q-11 -63 52 -63q62 0 73 63q11 62 -51 62q-30 0 -49.5 -16t-24.5 -46zM1418 88q-11 -63 52 -63q62 0 73 63q11 62 -51 62q-30 0 -49.5 -16t-24.5 -46z" />
    <glyph glyph-name="exclam_equal.liga" 
d="M1184 362l16 70h-392l100 123l-58 38l-131 -161h-567l-15 -70h525l-86 -107h-448l-15 -70h406l-127 -156l62 -30l152 186h554l16 70h-513l87 107h434z" />
    <glyph glyph-name="exclam_equal_equal.liga" 
d="M1839 420l16 70h-700l77 107l-55 48l-111 -155h-908l-16 -70h874l-68 -95h-813l-16 -70h779l-68 -95h-718l-16 -70h684l-81 -113l53 -49l116 162h925l16 70h-891l69 95h829l16 70h-795l68 95h734z" />
    <glyph glyph-name="hyphen_greater.liga" 
d="M880 616l-66 -70l257 -199h-911l-11 -80h911l-313 -200l52 -68l408 263l12 91z" />
    <glyph glyph-name="period_equal.liga" 
d="M1097 372l12 80h-597l4 -80h581zM224 309q-9 -73 63 -73q71 0 82 73q11 71 -62 71q-35 0 -56.5 -18t-26.5 -53zM1068 165l11 80h-581l-27 -80h597z" />
    <glyph glyph-name="slash_asterisk.liga" 
d="M657 803l-58 38l-586 -939l57 -39zM890 546l-119 -115l58 -48l108 87l93 -99l66 38l-87 128l167 59l-21 64l-146 -35l25 155l-73 5l-34 -151l-119 48l-47 -60z" />
    <glyph glyph-name="bar_braceright.liga" 
d="M812 141q-9 -54 -17.5 -105.5t-13.5 -90.5q-5 -27 -13 -43t-21 -24t-31.5 -10t-45.5 -2h-94l134 848h80q27 0 47.5 -3t33 -12t17 -26.5t-0.5 -47.5q-5 -34 -13 -88t-17 -108q-9 -62 8.5 -94.5t73.5 -43.5q-57 -9 -86.5 -47.5t-40.5 -102.5zM948 441q7 45 13.5 91.5
t14.5 92.5q8 47 -0.5 77t-31 47t-58 24t-82.5 7h-399l-13 -66h227l-134 -848h-256l-13 -66h439q47 0 84 8t64 26.5t44.5 50.5t24.5 80q7 43 14 88t15 95q4 24 10.5 43t21.5 32t41.5 20t70.5 7l16 80q-44 0 -69 7.5t-36 21.5t-11.5 34.5t3.5 47.5z" />
    <glyph glyph-name="bar_bracketright.liga" 
d="M588 -122l130 823h251l-146 -823h-235zM415 780l-15 -79h227l-130 -823h-256l-15 -78h673l176 980h-660z" />
    <glyph glyph-name="bar_greater.liga" 
d="M476 607l403 -314l-516 -328zM494 708l13 72h-91l-173 -980h91l10 58l622 390l13 91z" />
    <glyph glyph-name="plus_plus.liga" 
d="M1145 334h-163l23 161h-70l-23 -161h-490l23 161h-70l-23 -161h-160l-10 -70h161l-23 -161h70l23 161h490l-23 -161h70l23 161h162z" />
    <glyph glyph-name="equal_equal.liga" 
d="M137 362h1047l16 70h-1048zM1176 255h-1048l-15 -70h1047z" />
    <glyph glyph-name="equal_equal_equal.liga" 
d="M142 420h1697l16 70h-1697zM1832 325h-1697l-16 -70h1697zM1809 160h-1697l-16 -70h1697z" />
    <glyph glyph-name="equal_greater.liga" 
d="M859 617l-43 -80l149 -110h-809l-10 -70h913l60 -44l-73 -45h-912l-10 -70h808l-179 -110l26 -78l417 258l12 91z" />
    <glyph glyph-name="less_bar.liga" 
d="M476 607l403 -314l-516 -328zM494 708l13 72h-91l-173 -980h91l10 58l622 390l13 91z" />
    <glyph glyph-name="less_hyphen.liga" 
d="M1184 347h-912l315 199l-46 70l-415 -263l-14 -91l333 -263l71 68l-256 200h912z" />
    <glyph glyph-name="liga1" horiz-adv-x="600" 
 />
    <glyph glyph-name="liga2" horiz-adv-x="600" 
 />
    <glyph glyph-name="liga3" horiz-adv-x="600" 
 />
    <glyph glyph-name="liga4" horiz-adv-x="600" 
 />
    <glyph glyph-name="liga5" horiz-adv-x="600" 
 />
    <glyph glyph-name="liga6" horiz-adv-x="600" 
 />
    <glyph glyph-name="liga7" horiz-adv-x="600" 
 />
    <glyph glyph-name="liga8" horiz-adv-x="600" 
 />
    <glyph glyph-name="liga9" horiz-adv-x="600" 
 />
    <glyph glyph-name="liga10" horiz-adv-x="600" 
 />
    <glyph glyph-name="liga11" horiz-adv-x="600" 
 />
    <glyph glyph-name="liga12" horiz-adv-x="600" 
 />
    <glyph glyph-name="liga13" horiz-adv-x="600" 
 />
    <glyph glyph-name="liga14" horiz-adv-x="600" 
 />
    <glyph glyph-name="liga15" horiz-adv-x="600" 
 />
    <glyph glyph-name="liga16" horiz-adv-x="600" 
 />
    <glyph glyph-name="liga17" horiz-adv-x="600" 
 />
    <glyph glyph-name="liga18" horiz-adv-x="600" 
 />
    <glyph glyph-name="liga19" horiz-adv-x="600" 
 />
  </font>
</defs>
</svg>
